<?xml version="1.0" encoding="utf-8"?>
<!-- Generator: Adobe Illustrator 21.1.0, SVG Export Plug-In . SVG Version: 6.00 Build 0)  -->
<svg version="1.1" id="Layer_1" xmlns="http://www.w3.org/2000/svg" xmlns:xlink="http://www.w3.org/1999/xlink" x="0px" y="0px"
	 viewBox="0 0 512 512" style="enable-background:new 0 0 512 512;" xml:space="preserve">
<style type="text/css">
	.st0{fill:#F0F0F0;}
	.st1{fill:#D80027;}
	.st2{fill:#0052B4;}
	.st3{fill:#FFFFFF;}
</style>
<g>
	<path class="st0" d="M417.4,57.3l-65.1,65.1l-66.8,66.8L256,218.8L57.3,417.4c-7.2-8.8-13.8-18.1-19.8-27.9c0,0,0-0.1,0-0.1
		c-0.5-0.8-1-1.7-1.5-2.5c-0.2-0.3-0.4-0.6-0.5-0.9c-0.3-0.5-0.6-1-0.9-1.6c-0.5-0.9-1.1-1.8-1.6-2.7c-0.8-1.3-1.5-2.6-2.2-4
		c-0.6-1.2-1.3-2.4-1.9-3.5c-0.2-0.3-0.3-0.6-0.5-0.9c-0.6-1.2-1.2-2.4-1.8-3.6c0,0,0,0,0,0c-0.7-1.4-1.3-2.7-2-4.1
		c-0.6-1.3-1.2-2.6-1.9-4c0-0.1-0.1-0.3-0.2-0.4c-0.6-1.3-1.2-2.6-1.7-3.9c-0.6-1.4-1.2-2.8-1.8-4.2c-0.4-1-0.8-2-1.2-3.1
		c-0.5-1.2-1-2.4-1.4-3.7c-0.3-0.9-0.7-1.8-1-2.7c-0.6-1.5-1.1-3.1-1.6-4.6c-0.2-0.4-0.3-0.8-0.4-1.3c-1.2-3.5-2.3-6.9-3.3-10.5
		c-0.2-0.7-0.4-1.3-0.6-2c-0.3-0.9-0.5-1.8-0.7-2.6C3.1,301.5,0,279.1,0,256c0-1.5,0-3,0-4.6c0-1.2,0.1-2.3,0.1-3.5
		c0-1.1,0.1-2.2,0.1-3.3c0-0.3,0-0.7,0-1c0.1-1.2,0.1-2.5,0.2-3.7c0.1-1.3,0.2-2.7,0.3-4c0.1-1.3,0.2-2.6,0.3-4
		c0.1-1.3,0.3-2.6,0.4-4c0.1-1.3,0.3-2.6,0.5-3.9c2.5-19.9,7.2-39.1,14-57.3c0.3-0.9,0.6-1.7,1-2.5c0.4-1,0.8-2.1,1.2-3.1
		c0.3-0.8,0.6-1.6,1-2.3c0.7-1.6,1.3-3.1,2-4.6c0.3-0.8,0.7-1.5,1-2.3c0.4-0.8,0.7-1.6,1.1-2.5c0.4-0.8,0.8-1.6,1.1-2.4l0,0
		c1.8-3.8,3.7-7.6,5.7-11.4v0c0.6-1.2,1.3-2.4,2-3.6c0.3-0.5,0.5-1,0.8-1.5c0.5-1,1.1-1.9,1.6-2.9c0.6-1,1.2-2,1.8-3
		c2-3.4,4.1-6.7,6.3-10c0.9-1.3,1.7-2.6,2.6-3.9c0.9-1.3,1.8-2.6,2.7-3.8c1.8-2.5,3.7-5,5.6-7.5c1.7-2.2,3.4-4.3,5.1-6.4
		c0,0,0,0,0,0c3.5-4.2,7.1-8.3,10.8-12.2c1.9-2,3.8-3.9,5.7-5.9c4.4-4.4,9-8.6,13.7-12.7c1.1-1,2.3-2,3.5-2.9c0,0,0-0.1,0.1-0.1
		c8.3-7,17.1-13.4,26.3-19.2c1.2-0.8,2.5-1.6,3.8-2.3c1.2-0.7,2.4-1.5,3.6-2.2c0.3-0.2,0.6-0.3,0.9-0.5c0.9-0.5,1.7-1,2.6-1.5
		c0.4-0.2,0.7-0.4,1.1-0.6c0.9-0.5,1.9-1,2.8-1.5c0.3-0.2,0.5-0.3,0.8-0.5c1.2-0.7,2.5-1.3,3.7-2c1.3-0.7,2.6-1.4,4-2
		c1.3-0.7,2.6-1.3,3.9-1.9c0.1,0,0.2-0.1,0.3-0.1c1-0.5,2.1-1,3.2-1.5c0.5-0.3,1.1-0.5,1.6-0.7c1-0.5,2.1-0.9,3.1-1.4
		c1.3-0.6,2.7-1.1,4-1.7c0,0,0.1-0.1,0.2-0.1c1.3-0.6,2.7-1.1,4.1-1.7c0,0,0.1,0,0.1,0c1.3-0.5,2.7-1,4-1.5c1.2-0.5,2.4-0.9,3.6-1.3
		c0.4-0.1,0.8-0.3,1.2-0.4c1.2-0.4,2.5-0.9,3.7-1.3c1.4-0.5,2.8-0.9,4.3-1.4c1.4-0.5,2.9-0.9,4.3-1.3c0.7-0.2,1.4-0.4,2.2-0.6
		c0.7-0.2,1.5-0.4,2.2-0.6c1.5-0.4,2.9-0.8,4.4-1.2c0.5-0.1,1.1-0.3,1.7-0.4c0.6-0.2,1.3-0.3,1.9-0.5c0.7-0.2,1.4-0.4,2.2-0.5
		c1-0.3,2.1-0.5,3.1-0.7c0.7-0.2,1.5-0.3,2.2-0.5c0.7-0.2,1.5-0.3,2.2-0.5c1.5-0.3,3-0.6,4.5-0.9c0.5-0.1,0.9-0.2,1.4-0.3
		c0.9-0.2,1.8-0.3,2.8-0.5c1.6-0.3,3.3-0.5,4.9-0.8c0.8-0.1,1.5-0.2,2.3-0.3c0.2,0,0.5-0.1,0.7-0.1c1.5-0.2,3.1-0.4,4.7-0.6
		c2-0.2,4.1-0.4,6.1-0.6c0.6,0,1.1-0.1,1.7-0.1c0.7-0.1,1.4-0.1,2.1-0.2c1.1-0.1,2.1-0.2,3.2-0.2c0,0,0,0,0,0
		c0.9-0.1,1.9-0.1,2.8-0.2c2.2-0.1,4.3-0.2,6.5-0.3c0.5,0,1,0,1.6,0c0.6,0,1.2,0,1.9,0c1.2,0,2.4,0,3.7,0
		c60.3,0,115.6,20.8,159.4,55.7C416.1,56.2,416.8,56.8,417.4,57.3z"/>
	<g>
		<polygon class="st1" points="285.5,189.2 256,218.8 244.9,229.9 244.9,189.2 		"/>
		<path class="st1" d="M415.4,55.7c0.7,0.5,1.4,1.1,2.1,1.7l-65.1,65.1H244.9V55.7H415.4z"/>
		<path class="st1" d="M8.8,322.8H152l-66.8,66.8H37.6c0,0,0-0.1,0-0.1c-0.5-0.8-1-1.7-1.5-2.5c-0.2-0.3-0.4-0.6-0.5-0.9
			c-0.3-0.5-0.6-1-0.9-1.6c-0.5-0.9-1.1-1.8-1.6-2.7c-0.8-1.3-1.5-2.6-2.2-4c-0.6-1.2-1.3-2.4-1.9-3.5c-0.2-0.3-0.3-0.6-0.5-0.9
			c-0.6-1.2-1.2-2.4-1.8-3.6c0,0,0,0,0,0c-0.7-1.4-1.3-2.7-2-4.1c-0.6-1.3-1.2-2.6-1.9-4c0-0.1-0.1-0.3-0.2-0.4
			c-0.6-1.3-1.2-2.6-1.7-3.9c-0.6-1.4-1.2-2.8-1.8-4.2C15.1,343.4,11.6,333.2,8.8,322.8z"/>
	</g>
	<path class="st2" d="M252.3,0c-0.6,0-1.2,0-1.9,0c-0.5,0-1,0-1.6,0c-2.2,0.1-4.3,0.1-6.5,0.3c-1,0-1.9,0.1-2.8,0.2c0,0,0,0,0,0
		c-1.1,0.1-2.1,0.1-3.2,0.2c-0.7,0-1.4,0.1-2.1,0.2c-0.5,0-1.1,0.1-1.7,0.1c-2,0.2-4.1,0.4-6.1,0.6c-1.6,0.2-3.1,0.4-4.7,0.6
		c-0.2,0-0.5,0-0.7,0.1c-0.8,0.1-1.5,0.2-2.3,0.3c-1.7,0.2-3.3,0.5-4.9,0.8c-0.9,0.1-1.8,0.3-2.8,0.5c-0.5,0.1-0.9,0.2-1.4,0.3
		c-1.5,0.3-3,0.6-4.5,0.9c-0.7,0.2-1.5,0.3-2.2,0.5c-0.8,0.2-1.5,0.3-2.2,0.5c-1.1,0.2-2.1,0.5-3.1,0.7c-0.7,0.2-1.4,0.3-2.2,0.5
		c-0.6,0.2-1.3,0.3-1.9,0.5c-0.5,0.1-1.1,0.3-1.7,0.4c-1.5,0.4-2.9,0.8-4.4,1.2c-0.7,0.2-1.5,0.4-2.2,0.6c-0.7,0.2-1.5,0.4-2.2,0.6
		c-1.4,0.4-2.9,0.9-4.3,1.3c-1.4,0.5-2.9,0.9-4.3,1.4c-1.2,0.4-2.5,0.8-3.7,1.3c-0.4,0.1-0.8,0.3-1.2,0.4c-1.2,0.4-2.4,0.9-3.6,1.3
		c-1.4,0.5-2.7,1-4,1.5c0,0-0.1,0-0.1,0c-1.4,0.5-2.7,1.1-4.1,1.7c-0.1,0-0.1,0-0.2,0.1c-1.4,0.6-2.7,1.1-4,1.7
		c-1,0.5-2.1,0.9-3.1,1.4c-0.5,0.2-1.1,0.5-1.6,0.7c-1.1,0.5-2.1,1-3.2,1.5c-0.1,0-0.2,0.1-0.3,0.1c-1.3,0.6-2.6,1.3-3.9,1.9
		c-1.3,0.7-2.6,1.3-4,2c-1.2,0.6-2.5,1.3-3.7,2c-0.3,0.2-0.6,0.3-0.8,0.5c-0.9,0.5-1.9,1-2.8,1.5c-0.4,0.2-0.7,0.4-1.1,0.6
		c-0.9,0.5-1.7,1-2.6,1.5c-0.3,0.2-0.6,0.3-0.9,0.5c-1.2,0.7-2.4,1.4-3.6,2.2c-1.3,0.8-2.5,1.5-3.8,2.3h23.3l-21.7,15.8l8.3,25.5
		l-21.7-15.8L85.1,81.3l7.2-22c0,0,0,0-0.1,0.1c-1.2,1-2.3,1.9-3.5,2.9c-4.7,4.1-9.3,8.3-13.7,12.7c-1.9,1.9-3.8,3.9-5.7,5.9
		c-3.7,4-7.3,8-10.8,12.2c0,0,0,0,0,0c-1.7,2.1-3.4,4.2-5.1,6.4c-1.9,2.5-3.8,5-5.6,7.5c-0.9,1.3-1.8,2.5-2.7,3.8
		c-0.9,1.3-1.8,2.6-2.6,3.9h7.5l-13.8,10c-0.6,1-1.2,2-1.8,3c-0.5,1-1.1,1.9-1.6,2.9c-0.3,0.5-0.5,1-0.8,1.5c-0.7,1.2-1.3,2.4-2,3.6
		v0l6.6,20.3l-12.3-8.9l0,0c-0.4,0.8-0.8,1.6-1.1,2.4c-0.4,0.8-0.7,1.6-1.1,2.5c-0.3,0.8-0.7,1.5-1,2.3c-0.7,1.5-1.3,3.1-2,4.6
		c-0.3,0.8-0.6,1.6-1,2.3c-0.4,1-0.8,2.1-1.2,3.1c-0.3,0.8-0.6,1.7-1,2.5l7.3,22.4h26.8l-21.7,15.8l8.3,25.5L15,214.6l-13,9.4
		c-0.2,1.3-0.3,2.6-0.5,3.9c-0.1,1.3-0.3,2.6-0.4,4c-0.1,1.3-0.2,2.6-0.3,4c-0.1,1.3-0.2,2.7-0.3,4c-0.1,1.2-0.1,2.5-0.2,3.7
		c0,0.3,0,0.7,0,1c0,1.1-0.1,2.2-0.1,3.3c0,1.2-0.1,2.3-0.1,3.5c0,1.5,0,3,0,4.6h218.8l37.2-37.2V0C254.8,0,253.5,0,252.3,0z
		 M128.5,230.4l-21.7-15.8l-21.7,15.8l8.3-25.5l-21.7-15.8h26.8l8.3-25.5l8.3,25.5h26.8l-21.7,15.8L128.5,230.4z M120.2,130.3
		l8.3,25.5l-21.7-15.8l-21.7,15.8l8.3-25.5l-21.7-15.8h26.8l8.3-25.5l8.3,25.5h26.8L120.2,130.3z M220.3,230.4l-21.7-15.8
		l-21.7,15.8l8.3-25.5l-21.7-15.8h26.8l8.3-25.5l8.3,25.5h26.8L212,204.9L220.3,230.4z M212,130.3l8.3,25.5l-21.7-15.8l-21.7,15.8
		l8.3-25.5l-21.7-15.8h26.8l8.3-25.5l8.3,25.5h26.8L212,130.3z M212,55.7l8.3,25.5l-21.7-15.8l-21.7,15.8l8.3-25.5L163.5,40h26.8
		l8.3-25.5l8.3,25.5h26.8L212,55.7z"/>
</g>
<path class="st0" d="M512,256c0,1.2,0,2.4,0,3.6c0,0.5,0,1,0,1.5c0,0.1,0,0.3,0,0.4c0,0.8,0,1.5-0.1,2.3c0,0.2,0,0.3,0,0.5
	c0,0.2,0,0.3,0,0.5c0,1.3-0.1,2.6-0.2,3.9c-0.1,1.4-0.2,2.8-0.2,4.2c0,0.8-0.1,1.5-0.2,2.2c0,0.4-0.1,0.9-0.1,1.3
	c0,0.3,0,0.7-0.1,1.1v0c-0.1,1-0.2,2-0.3,3c-0.1,1-0.2,2-0.3,3c-0.1,1-0.2,2-0.3,3s-0.2,2-0.4,3c-0.4,2.8-0.8,5.7-1.3,8.5
	c-1.4,8.5-3.2,16.8-5.4,24.9c-0.4,1.3-0.7,2.7-1.1,4c-0.1,0.5-0.3,1-0.5,1.5c-0.2,0.6-0.3,1.1-0.5,1.7c-0.2,0.6-0.4,1.3-0.6,1.9
	c-0.3,1.1-0.7,2.2-1.1,3.3c-0.1,0.4-0.3,0.8-0.4,1.2c-0.1,0.2-0.1,0.4-0.2,0.6c0,0.1-0.1,0.2-0.1,0.3c-0.2,0.5-0.3,1-0.5,1.5
	c-0.2,0.7-0.5,1.4-0.7,2.1c-0.4,1-0.7,2.1-1.1,3.1c-0.3,0.7-0.5,1.4-0.8,2.1c-0.2,0.6-0.5,1.3-0.7,1.9c-0.2,0.4-0.3,0.8-0.5,1.2
	c-0.1,0.1-0.1,0.3-0.2,0.4c-0.4,0.9-0.7,1.8-1.1,2.6c-0.4,0.9-0.8,1.9-1.2,2.8c0,0.1-0.1,0.2-0.1,0.3c-0.3,0.7-0.6,1.3-0.9,2
	c-0.1,0.3-0.2,0.5-0.3,0.8c0,0.1-0.1,0.2-0.1,0.3c-0.2,0.4-0.4,0.9-0.6,1.3c-0.2,0.5-0.4,1-0.7,1.5c0,0.1-0.1,0.2-0.1,0.2l0,0
	c-0.3,0.7-0.6,1.3-0.9,2c-0.1,0.3-0.2,0.5-0.4,0.8c-0.4,0.9-0.8,1.8-1.3,2.6c-0.5,1-1,2-1.5,3.1c0,0.1-0.1,0.1-0.1,0.2
	c-0.4,0.8-0.8,1.6-1.2,2.3c0,0,0,0.1-0.1,0.2c-0.2,0.4-0.5,0.9-0.7,1.3c-0.2,0.3-0.3,0.7-0.5,1c0,0.1-0.1,0.1-0.1,0.2
	c-1,1.9-2,3.7-3,5.6c0,0,0,0,0,0c-0.4,0.7-0.8,1.3-1.1,2c0,0,0,0,0,0c-0.4,0.7-0.8,1.3-1.2,2c-0.6,1.1-1.2,2.1-1.8,3.1
	c-0.3,0.5-0.6,1.1-1,1.6c-0.6,1-1.2,1.9-1.8,2.8c-0.2,0.3-0.4,0.6-0.6,0.9c-1.8,2.8-3.6,5.6-5.5,8.3c-0.1,0.1-0.2,0.3-0.3,0.4
	c-0.6,0.8-1.1,1.6-1.7,2.4c-1.1,1.6-2.3,3.2-3.5,4.7c-0.5,0.7-1,1.4-1.6,2.1c-0.1,0.2-0.3,0.4-0.5,0.6c-2.3,3-4.6,5.9-7,8.7
	c-0.6,0.7-1.2,1.4-1.8,2.1c-0.6,0.7-1.2,1.4-1.8,2.1s-1.2,1.4-1.8,2.1c-0.6,0.7-1.3,1.4-1.9,2.1c-0.6,0.7-1.3,1.4-1.9,2
	c-0.1,0.1-0.3,0.3-0.4,0.4c-0.5,0.5-1,1.1-1.5,1.6c-1.3,1.3-2.6,2.7-3.9,4c-1,1-2,2-3,2.9c-0.9,0.9-1.8,1.7-2.7,2.6
	c-0.2,0.2-0.3,0.3-0.5,0.5c-1,0.9-1.9,1.8-2.9,2.7c-1,0.9-2.1,1.9-3.1,2.8c0,0,0,0-0.1,0.1c-3.1,2.7-6.2,5.3-9.4,7.8
	c-0.1,0.1-0.1,0.1-0.2,0.2c-1.1,0.9-2.2,1.7-3.3,2.6c-0.3,0.2-0.5,0.4-0.8,0.6c-0.9,0.7-1.7,1.3-2.6,2c0,0-0.1,0.1-0.1,0.1
	c-0.5,0.3-1,0.7-1.4,1c-0.4,0.3-0.8,0.6-1.1,0.8c-0.5,0.3-1,0.7-1.4,1c-1.5,1.1-3.1,2.2-4.6,3.2c-0.1,0.1-0.2,0.1-0.3,0.2
	c0,0-0.1,0-0.1,0.1c-0.8,0.5-1.6,1-2.4,1.6c-0.7,0.4-1.3,0.9-2,1.3c-0.5,0.3-1,0.6-1.5,1c-0.2,0.1-0.3,0.2-0.5,0.3
	c-0.5,0.3-1,0.6-1.5,1c-0.6,0.4-1.2,0.8-1.8,1.1c-0.2,0.1-0.5,0.3-0.7,0.4c-0.9,0.5-1.8,1.1-2.7,1.6c-0.4,0.2-0.8,0.5-1.2,0.7
	c-0.1,0-0.1,0.1-0.2,0.1c-0.2,0.1-0.3,0.2-0.5,0.3c-0.5,0.3-1,0.6-1.6,0.9c-2,1.1-4,2.2-6,3.3c-0.3,0.2-0.7,0.4-1,0.5
	c-0.2,0.1-0.3,0.2-0.5,0.3c-1.8,1-3.7,1.9-5.5,2.8c-0.1,0.1-0.3,0.1-0.4,0.2c-0.3,0.1-0.6,0.3-0.8,0.4c-0.8,0.4-1.5,0.8-2.3,1.1
	c-0.3,0.2-0.6,0.3-0.9,0.4c-0.8,0.4-1.5,0.7-2.3,1.1c-0.3,0.1-0.5,0.2-0.8,0.3c-1,0.4-1.9,0.9-2.9,1.3c-1,0.4-1.9,0.8-2.9,1.3
	c-0.1,0.1-0.3,0.1-0.4,0.2c-0.2,0.1-0.3,0.2-0.5,0.2c-1,0.4-1.9,0.8-2.9,1.2c-1.4,0.6-2.8,1.1-4.1,1.6c-0.2,0.1-0.5,0.2-0.7,0.3
	c-0.8,0.3-1.7,0.6-2.5,0.9c-0.5,0.2-1,0.4-1.5,0.5c-0.9,0.4-1.9,0.7-2.8,1c0,0-0.1,0-0.1,0c-1.5,0.5-2.9,1-4.4,1.5
	c-0.2,0-0.3,0.1-0.5,0.2c-0.6,0.2-1.2,0.4-1.8,0.6c-0.8,0.2-1.5,0.5-2.2,0.7c0,0,0,0,0,0c-1.5,0.5-3,0.9-4.5,1.4
	c-0.8,0.2-1.5,0.4-2.3,0.6c-0.8,0.2-1.5,0.4-2.3,0.6c0,0,0,0-0.1,0c-0.9,0.2-1.8,0.5-2.7,0.7c-1.4,0.3-2.7,0.7-4.1,1
	c-1.5,0.4-3,0.7-4.6,1.1c-0.8,0.2-1.5,0.3-2.3,0.5c-0.6,0.1-1.2,0.3-1.7,0.4c-0.2,0-0.3,0.1-0.4,0.1c-0.8,0.2-1.7,0.3-2.5,0.5
	c-0.2,0-0.5,0.1-0.7,0.1c-0.2,0-0.4,0.1-0.6,0.1c-0.3,0.1-0.7,0.1-1,0.2c-0.5,0.1-1.1,0.2-1.6,0.3c-1,0.2-2.1,0.4-3.1,0.5
	c-0.3,0-0.5,0.1-0.8,0.1c-0.5,0.1-1,0.2-1.5,0.2c-1.5,0.2-3,0.5-4.5,0.7c-0.2,0-0.3,0-0.5,0.1c-0.6,0.1-1.2,0.1-1.7,0.2
	c-0.2,0-0.4,0-0.6,0.1c-0.2,0-0.4,0-0.6,0.1c-0.3,0-0.6,0.1-0.9,0.1c-0.2,0-0.4,0-0.7,0.1c-0.8,0.1-1.5,0.2-2.3,0.3c0,0-0.1,0-0.1,0
	c-1,0.1-1.9,0.2-2.9,0.3c-1,0.1-2,0.2-3,0.3h0c0,0-0.1,0-0.1,0c-0.3,0-0.6,0-1,0.1c-0.4,0-0.9,0.1-1.3,0.1c-0.1,0-0.2,0-0.4,0
	c-0.1,0-0.2,0-0.2,0c-0.5,0-1.1,0.1-1.6,0.1c-1.3,0.1-2.7,0.2-4,0.2c-0.1,0-0.1,0-0.2,0c-0.2,0-0.4,0-0.6,0c-0.4,0-0.9,0-1.3,0.1
	c-0.7,0-1.3,0-2,0.1c-0.2,0-0.3,0-0.5,0c-0.2,0-0.3,0-0.5,0c-0.6,0-1.3,0-1.9,0c-0.2,0-0.5,0-0.7,0c-0.5,0-1,0-1.5,0
	c-0.3,0-0.5,0-0.8,0c-0.9,0-1.9,0-2.8,0s-1.9,0-2.8,0c-0.3,0-0.5,0-0.8,0c-0.5,0-1,0-1.5,0c-0.2,0-0.5,0-0.7,0c-0.6,0-1.3,0-1.9,0
	c-0.2,0-0.3,0-0.5,0c-0.2,0-0.3,0-0.5,0c-0.7,0-1.3,0-2-0.1c-0.4,0-0.9,0-1.3-0.1c-0.2,0-0.4,0-0.6,0c-0.1,0-0.1,0-0.2,0
	c-1.3-0.1-2.7-0.1-4-0.2c-0.5,0-1.1-0.1-1.6-0.1c-0.1,0-0.2,0-0.2,0c-0.1,0-0.2,0-0.4,0c-0.4,0-0.9-0.1-1.3-0.1c-0.3,0-0.6,0-1-0.1
	c0,0-0.1,0-0.1,0h0c-1-0.1-2-0.2-3-0.3c-1-0.1-1.9-0.2-2.9-0.3c0,0-0.1,0-0.1,0c-0.8-0.1-1.5-0.2-2.3-0.3c-0.2,0-0.4-0.1-0.7-0.1
	c-1-0.1-2-0.2-3-0.4c-1.4-0.2-2.8-0.4-4.3-0.6c-1.4-0.2-2.8-0.4-4.2-0.7c-8.5-1.4-16.8-3.2-24.9-5.4c-3.1-0.8-6.1-1.7-9.1-2.6
	c-1-0.3-2-0.6-3-1c-1-0.3-2-0.7-3-1c-1.3-0.4-2.5-0.8-3.7-1.3c-0.7-0.3-1.5-0.5-2.2-0.8c-0.7-0.2-1.4-0.5-2-0.7
	c-0.3-0.1-0.6-0.2-0.9-0.4c-8.9-3.4-17.5-7.2-25.9-11.5c-1-0.5-2-1-3-1.6c-1-0.5-2-1.1-3-1.6c-1-0.6-2-1.1-3-1.7
	c-0.9-0.5-1.9-1.1-2.8-1.6c-0.5-0.3-1.1-0.6-1.6-0.9c-0.5-0.3-1-0.6-1.5-0.9c-0.5-0.3-1-0.6-1.5-0.9c-0.5-0.3-1-0.6-1.5-0.9
	c-0.8-0.5-1.5-1-2.3-1.4c-0.5-0.3-0.9-0.6-1.4-0.9c-0.6-0.4-1.2-0.8-1.8-1.2c-0.1-0.1-0.2-0.1-0.3-0.2c-0.1,0-0.1-0.1-0.2-0.2
	c-0.9-0.6-1.7-1.1-2.6-1.7c-0.8-0.5-1.6-1.1-2.4-1.6c0,0,0,0,0,0c0,0-0.1,0-0.1-0.1c-0.3-0.2-0.6-0.4-0.9-0.6
	c-0.3-0.2-0.6-0.4-0.9-0.7c-1.9-1.4-3.8-2.8-5.7-4.2c-0.8-0.6-1.6-1.2-2.5-1.9c-0.7-0.6-1.5-1.1-2.2-1.7c-0.4-0.3-0.8-0.7-1.3-1
	c-0.6-0.5-1.2-1-1.8-1.5l65.3-65.3l62.5-62.5v-4.3h4.3l66.8-66.8l33.4-33.4l33.4-33.4l66.8-66.8l27.6-27.6c0.6,0.7,1.2,1.5,1.8,2.2
	c0.8,1,1.6,2.1,2.4,3.1c0.6,0.8,1.3,1.6,1.9,2.5c0.5,0.6,0.9,1.2,1.3,1.8c0.2,0.2,0.3,0.5,0.5,0.7c0.1,0.1,0.2,0.3,0.3,0.4
	c0.4,0.5,0.8,1.1,1.2,1.7c0.1,0.1,0.2,0.3,0.3,0.4c0.1,0.1,0.1,0.1,0.2,0.2c0.5,0.7,1,1.4,1.5,2.1c1.2,1.8,2.4,3.5,3.6,5.4
	c0.5,0.8,1.1,1.6,1.6,2.4c0,0.1,0.1,0.1,0.1,0.2c0.2,0.3,0.4,0.6,0.6,0.9c0.1,0.1,0.1,0.2,0.2,0.3c0.6,1,1.3,2,1.9,3
	c0.1,0.1,0.2,0.3,0.2,0.4h0c0.6,1,1.3,2,1.9,3.1c0.1,0.1,0.2,0.3,0.3,0.4c0.5,0.9,1,1.7,1.5,2.6c1,1.8,2,3.6,3,5.4
	c0.5,0.9,1,1.8,1.5,2.8c0.4,0.7,0.7,1.4,1.1,2.1c0.4,0.7,0.7,1.4,1.1,2.1c0.2,0.5,0.5,0.9,0.7,1.4c0.5,0.9,0.9,1.9,1.4,2.8
	c0.3,0.6,0.6,1.2,0.9,1.8c0.2,0.3,0.3,0.7,0.5,1c0.2,0.4,0.3,0.8,0.5,1.1c0.2,0.5,0.5,1,0.7,1.5c0,0.1,0.1,0.1,0.1,0.2
	c0.9,1.9,1.7,3.8,2.5,5.7c1.3,3,2.5,6.1,3.7,9.2c0.3,0.8,0.6,1.5,0.9,2.3c0,0.1,0.1,0.3,0.1,0.4c0.3,0.8,0.6,1.6,0.8,2.3
	c0.4,1.1,0.8,2.3,1.2,3.4c0.5,1.4,1,2.9,1.4,4.3c0.4,1.3,0.8,2.6,1.2,3.9c0.7,2.3,1.3,4.6,2,6.9c0.1,0.3,0.2,0.6,0.3,0.9
	c0.2,0.8,0.5,1.7,0.7,2.5c0.1,0.3,0.1,0.5,0.2,0.8c0.3,1.1,0.6,2.3,0.8,3.4c0,0.2,0.1,0.3,0.1,0.5c0.1,0.3,0.1,0.5,0.2,0.8
	c0.3,1,0.5,2.1,0.7,3.2c0.1,0.3,0.1,0.6,0.2,0.8c0.2,1.1,0.5,2.1,0.7,3.2c0.1,0.3,0.1,0.5,0.2,0.8c0.2,1.1,0.4,2.2,0.6,3.3
	c0.1,0.3,0.1,0.5,0.1,0.8c0.2,1.1,0.4,2.2,0.6,3.3c0,0.3,0.1,0.5,0.1,0.8c0.2,1.1,0.3,2.2,0.5,3.2c0,0.1,0,0.1,0,0.2
	c0,0.2,0.1,0.5,0.1,0.7c0.1,0.8,0.2,1.7,0.3,2.5c0.1,0.4,0.1,0.8,0.2,1.2c0,0.1,0,0.3,0.1,0.4c0.1,1,0.3,2,0.4,3
	c0,0.2,0,0.4,0.1,0.5c0.1,0.8,0.2,1.6,0.3,2.4c0,0.1,0,0.2,0,0.3c0,0,0,0.1,0,0.1c0,0.5,0.1,0.9,0.1,1.4c0,0.2,0.1,0.5,0.1,0.7
	c0,0.3,0.1,0.7,0.1,1c0.1,0.8,0.1,1.6,0.2,2.4c0,0,0,0.1,0,0.1c0,0.4,0.1,0.7,0.1,1.1c0,0.4,0.1,0.9,0.1,1.3c0,0.4,0.1,0.8,0.1,1.3
	c0,0.1,0,0.3,0,0.4c0,0.2,0,0.4,0,0.6c0.1,1.3,0.2,2.6,0.2,3.9c0,0.1,0,0.2,0,0.3c0,0.2,0,0.4,0,0.6c0,0.6,0.1,1.2,0.1,1.9
	c0,0.2,0,0.4,0,0.6c0,0.3,0,0.5,0,0.8c0,0.2,0,0.3,0,0.5v0c0,0.2,0,0.3,0,0.5c0,0.8,0,1.5,0.1,2.3c0,0.1,0,0.3,0,0.4
	c0,0.2,0,0.4,0,0.6c0,0.3,0,0.6,0,0.9C512,253.6,512,254.8,512,256z"/>
<g>
	<path class="st2" d="M503.2,189.2c-8.8-32.8-24-62.9-44.1-89.1L370,189.2H503.2z"/>
	<path class="st2" d="M100.1,459.1c26.2,20.1,56.3,35.3,89.1,44.1V370L100.1,459.1z"/>
	<path class="st2" d="M322.8,503.2c32.8-8.8,62.9-24,89.1-44.1L322.8,370L322.8,503.2L322.8,503.2z"/>
	<path class="st2" d="M370,322.8l89.1,89.1c20.1-26.2,35.3-56.3,44.1-89.1H370z"/>
</g>
<g>
	<path class="st1" d="M512,256c0,1.2,0,2.4,0,3.6c0,0.5,0,1,0,1.5c0,0.1,0,0.3,0,0.4c0,0.8,0,1.5-0.1,2.3c0,0.2,0,0.3,0,0.5
		c0,0.2,0,0.3,0,0.5c0,1.3-0.1,2.6-0.2,3.9c-0.1,1.4-0.2,2.8-0.2,4.2c0,0.8-0.1,1.5-0.2,2.2c0,0.4-0.1,0.9-0.1,1.3
		c0,0.3,0,0.7-0.1,1.1v0c-0.1,1-0.2,2-0.3,3c-0.1,1-0.2,2-0.3,3c-0.1,1-0.2,2-0.3,3s-0.2,2-0.4,3H289.4v220.4
		c-0.7,0.1-1.4,0.2-2,0.3c-0.3,0-0.6,0.1-0.9,0.1c-0.2,0-0.4,0-0.7,0.1c-0.8,0.1-1.5,0.2-2.3,0.3c0,0-0.1,0-0.1,0
		c-1,0.1-1.9,0.2-2.9,0.3c-1,0.1-2,0.2-3,0.3h0c0,0-0.1,0-0.1,0c-0.3,0-0.6,0-1,0.1c-0.4,0-0.9,0.1-1.3,0.1c-0.1,0-0.2,0-0.4,0
		c-0.1,0-0.2,0-0.2,0c-0.5,0-1.1,0.1-1.6,0.1c-1.3,0.1-2.7,0.2-4,0.2c-0.1,0-0.1,0-0.2,0c-0.2,0-0.4,0-0.6,0c-0.4,0-0.9,0-1.3,0.1
		c-0.7,0-1.3,0-2,0.1c-0.2,0-0.3,0-0.5,0c-0.2,0-0.3,0-0.5,0c-0.6,0-1.3,0-1.9,0c-0.2,0-0.5,0-0.7,0c-0.5,0-1,0-1.5,0
		c-0.3,0-0.5,0-0.8,0c-0.9,0-1.9,0-2.8,0s-1.9,0-2.8,0c-0.3,0-0.5,0-0.8,0c-0.5,0-1,0-1.5,0c-0.2,0-0.5,0-0.7,0c-0.6,0-1.3,0-1.9,0
		c-0.2,0-0.3,0-0.5,0c-0.2,0-0.3,0-0.5,0c-0.7,0-1.3,0-2-0.1c-0.4,0-0.9,0-1.3-0.1c-0.2,0-0.4,0-0.6,0c-0.1,0-0.1,0-0.2,0
		c-1.3-0.1-2.7-0.1-4-0.2c-0.5,0-1.1-0.1-1.6-0.1c-0.1,0-0.2,0-0.2,0c-0.1,0-0.2,0-0.4,0c-0.4,0-0.9-0.1-1.3-0.1c-0.3,0-0.6,0-1-0.1
		c0,0-0.1,0-0.1,0h0c-1-0.1-2-0.2-3-0.3c-1-0.1-1.9-0.2-2.9-0.3c0,0-0.1,0-0.1,0c-0.8-0.1-1.5-0.2-2.3-0.3c-0.2,0-0.4-0.1-0.7-0.1
		c-1-0.1-2-0.2-3-0.4v-187h4.3l66.8-66.8l33.4-33.4h182.7c0.1,1,0.3,2,0.4,3c0,0.2,0,0.4,0.1,0.5c0.1,0.8,0.2,1.6,0.3,2.4
		c0,0.1,0,0.2,0,0.3c0,0,0,0.1,0,0.1c0,0.5,0.1,0.9,0.1,1.4c0,0.2,0.1,0.5,0.1,0.7c0,0.3,0.1,0.7,0.1,1c0.1,0.8,0.1,1.6,0.2,2.4
		c0,0,0,0.1,0,0.1c0,0.4,0.1,0.7,0.1,1.1c0,0.4,0.1,0.9,0.1,1.3c0,0.4,0.1,0.8,0.1,1.3c0,0.1,0,0.3,0,0.4c0,0.2,0,0.4,0,0.6
		c0.1,1.3,0.2,2.6,0.2,3.9c0,0.1,0,0.2,0,0.3c0,0.2,0,0.4,0,0.6c0,0.6,0.1,1.2,0.1,1.9c0,0.2,0,0.4,0,0.6c0,0.3,0,0.5,0,0.8
		c0,0.2,0,0.3,0,0.5v0c0,0.2,0,0.3,0,0.5c0,0.8,0,1.5,0.1,2.3c0,0.1,0,0.3,0,0.4c0,0.2,0,0.4,0,0.6c0,0.3,0,0.6,0,0.9
		C512,253.6,512,254.8,512,256z"/>
	<path class="st1" d="M322.8,322.8L322.8,322.8L437,437c5.3-5.3,10.3-10.7,15-16.4l-97.8-97.8L322.8,322.8L322.8,322.8L322.8,322.8z
		"/>
</g>
<polygon class="st3" points="222.6,322.8 226.9,322.8 222.6,327.1 "/>
</svg>
